<svg width="18.000000" height="18.000000" viewBox="0 0 18 18" fill="none" xmlns="http://www.w3.org/2000/svg" xmlns:xlink="http://www.w3.org/1999/xlink">
	<desc>
			Created with Pixso.
	</desc>
	<defs>
		<clipPath id="clip23_444">
			<rect id="accumulator 1" width="18.000000" height="18.000000" fill="white" fill-opacity="0"/>
		</clipPath>
	</defs>
	<rect id="accumulator 1" width="18.000000" height="18.000000" fill="#FFFFFF" fill-opacity="0"/>
	<g clip-path="url(#clip23_444)">
		<path id="Vector" d="M16.5 3.75L16.5 3C16.5 2.58655 16.1638 2.25 15.75 2.25L13.5 2.25C13.0862 2.25 12.75 2.58655 12.75 3L12.75 3.74997L12.5303 3.74997L12.2197 3.43945C11.9407 3.16003 11.554 3 11.1592 3L6.84082 3C6.44604 3 6.05933 3.16003 5.78027 3.43945L5.46973 3.74997L5.25 3.74997L5.25 3C5.25 2.58655 4.91382 2.25 4.5 2.25L2.25 2.25C1.83618 2.25 1.5 2.58655 1.5 3L1.5 3.74997C0.673096 3.75 0 4.42273 0 5.25L0 14.25C0 15.0773 0.673096 15.75 1.5 15.75L16.5 15.75C17.3269 15.75 18 15.0773 18 14.25L18 5.25C18 4.42273 17.3269 3.75 16.5 3.75ZM4.125 7.5L2.625 7.5C2.41772 7.5 2.25 7.33224 2.25 7.12497C2.25 6.91772 2.41772 6.75 2.625 6.75L4.125 6.75C4.33228 6.75 4.50006 6.91772 4.50006 7.125C4.5 7.33231 4.33228 7.5 4.125 7.5ZM15.375 7.5L15 7.5L15 7.875C15 8.08228 14.8323 8.25 14.6249 8.25C14.4177 8.25 14.2499 8.08228 14.2499 7.875L14.2499 7.5L13.8749 7.5C13.6677 7.5 13.4999 7.33224 13.4999 7.12497C13.4999 6.91769 13.6677 6.74997 13.8749 6.74997L14.2499 6.74997L14.2499 6.37494C14.2499 6.16766 14.4177 5.99994 14.6249 5.99994C14.8323 5.99994 15 6.16766 15 6.37494L15 6.75L15.375 6.75C15.5823 6.75 15.75 6.91772 15.75 7.125C15.75 7.33231 15.5823 7.5 15.375 7.5Z" fill="#5D6C7B" fill-opacity="1.000000" fill-rule="nonzero"/>
	</g>
</svg>
