<svg width="20.000000" height="20.000000" viewBox="0 0 20 20" fill="none" xmlns="http://www.w3.org/2000/svg" xmlns:xlink="http://www.w3.org/1999/xlink">
	<desc>
			Created with Pixso.
	</desc>
	<defs>
		<clipPath id="clip1_16000">
			<rect id="shopping-cart 2" width="20.000000" height="20.000000" fill="white" fill-opacity="0"/>
		</clipPath>
	</defs>
	<rect id="shopping-cart 2" width="20.000000" height="20.000000" fill="#FFFFFF" fill-opacity="0"/>
	<g clip-path="url(#clip1_16000)">
		<path id="Vector" d="M19.1523 7.25427L15.0031 7.25427L12.6756 1.9248C12.5462 1.6283 12.2008 1.4928 11.9042 1.62244C11.6076 1.75183 11.4722 2.09729 11.6017 2.39392L13.7244 7.25427L6.27564 7.25427L8.3983 2.39392C8.52779 2.09729 8.3924 1.75195 8.09584 1.62244C7.79932 1.4928 7.45385 1.6283 7.32439 1.9248L4.99689 7.25427L0.847715 7.25427C0.304942 7.25427 -0.0978708 7.74561 0.0208797 8.26282L2.20584 17.7797C2.2926 18.1576 2.63611 18.4261 3.03268 18.4261L16.9674 18.4261C17.3639 18.4261 17.7074 18.1576 17.7942 17.7797L19.9792 8.26282C20.0979 7.74573 19.6951 7.25427 19.1523 7.25427ZM5.10713 9.05127C5.02885 9.05127 4.94928 9.03552 4.87291 9.0022C4.57635 8.87268 4.44092 8.52722 4.57045 8.23071L5.0106 7.22278L6.28936 7.22278L5.64436 8.69971C5.54822 8.91992 5.33299 9.05127 5.10713 9.05127ZM7.07033 15.3011C7.07033 15.6248 6.80799 15.8871 6.48439 15.8871C6.1608 15.8871 5.89846 15.6248 5.89846 15.3011L5.89846 11.0043C5.89846 10.6807 6.1608 10.4183 6.48439 10.4183C6.80799 10.4183 7.07033 10.6807 7.07033 11.0043L7.07033 15.3011ZM10.586 15.3011C10.586 15.6248 10.3236 15.8871 10 15.8871C9.67643 15.8871 9.41408 15.6248 9.41408 15.3011L9.41408 11.0043C9.41408 10.6807 9.67643 10.4183 10 10.4183C10.3236 10.4183 10.586 10.6807 10.586 11.0043L10.586 15.3011ZM14.1016 15.3011C14.1016 15.6248 13.8392 15.8871 13.5156 15.8871C13.1921 15.8871 12.9297 15.6248 12.9297 15.3011L12.9297 11.0043C12.9297 10.6807 13.1921 10.4183 13.5156 10.4183C13.8392 10.4183 14.1016 10.6807 14.1016 11.0043L14.1016 15.3011ZM15.1271 9.0022C15.0508 9.03552 14.9712 9.05127 14.8929 9.05127C14.6671 9.05127 14.4518 8.91992 14.3556 8.69971L13.7106 7.22278L14.9894 7.22278L15.4296 8.23071C15.5591 8.52722 15.4237 8.87268 15.1271 9.0022Z" fill="#6F73EE" fill-opacity="1.000000" fill-rule="nonzero"/>
	</g>
</svg>
