<svg width="22.000000" height="22.000000" viewBox="0 0 22 22" fill="none" xmlns="http://www.w3.org/2000/svg" xmlns:xlink="http://www.w3.org/1999/xlink">
	<desc>
			Created with Pixso.
	</desc>
	<defs>
		<clipPath id="clip1_14942">
			<rect id="Icon / Outlined / CheckCircle" width="22.000000" height="22.000000" fill="white" fill-opacity="0"/>
		</clipPath>
	</defs>
	<rect id="Icon / Outlined / CheckCircle" width="22.000000" height="22.000000" fill="#FFFFFF" fill-opacity="0"/>
	<g clip-path="url(#clip1_14942)">
		<path id="Vector" d="M15.0168 7.58398L14.0092 7.58398C13.79 7.58398 13.5816 7.68927 13.4527 7.86975L10.0754 12.5533L8.54565 10.4307C8.41675 10.2523 8.21051 10.1449 7.9892 10.1449L6.98157 10.1449C6.84192 10.1449 6.76031 10.3039 6.84192 10.4178L9.51892 14.1302C9.58215 14.2186 9.66553 14.2905 9.76208 14.3401C9.8587 14.3897 9.9657 14.4156 10.0743 14.4156C10.1829 14.4156 10.2899 14.3897 10.3865 14.3401C10.483 14.2905 10.5664 14.2186 10.6296 14.1302L15.1543 7.85681C15.2381 7.74298 15.1564 7.58398 15.0168 7.58398Z" fill="#6F73EE" fill-opacity="1.000000" fill-rule="nonzero"/>
		<path id="Vector" d="M11 1.375C5.68475 1.375 1.375 5.68475 1.375 11C1.375 16.3152 5.68475 20.625 11 20.625C16.3152 20.625 20.625 16.3152 20.625 11C20.625 5.68475 16.3152 1.375 11 1.375ZM11 18.9922C6.5871 18.9922 3.00781 15.4129 3.00781 11C3.00781 6.5871 6.5871 3.00781 11 3.00781C15.4129 3.00781 18.9922 6.5871 18.9922 11C18.9922 15.4129 15.4129 18.9922 11 18.9922Z" fill="#6F73EE" fill-opacity="1.000000" fill-rule="nonzero"/>
	</g>
</svg>
