<svg width="10.163025" height="8.145081" viewBox="0 0 10.163 8.14508" fill="none" xmlns="http://www.w3.org/2000/svg" xmlns:xlink="http://www.w3.org/1999/xlink">
	<desc>
			Created with Pixso.
	</desc>
	<defs/>
	<path id="check" d="M9.76904 0.299988L8.94989 0.299988C8.83508 0.299988 8.72607 0.352722 8.65576 0.442932L3.82416 6.56366L1.50732 3.62811C1.47229 3.58362 1.42761 3.54761 1.37665 3.52289C1.32574 3.49811 1.26984 3.48523 1.2132 3.48517L0.394043 3.48517C0.315552 3.48517 0.272156 3.57538 0.320251 3.63629L3.52997 7.7027C3.67999 7.89258 3.96826 7.89258 4.11945 7.7027L9.8429 0.450012C9.89093 0.390198 9.8476 0.299988 9.76904 0.299988Z" fill="#6F73EE" fill-opacity="1.000000" fill-rule="evenodd"/>
	<path id="check" d="M9.76904 0L8.94989 0Q8.87219 0 8.7984 0.0169678Q8.72485 0.0339355 8.65515 0.067749Q8.58203 0.10321 8.52112 0.153442Q8.46497 0.199768 8.41913 0.258545L3.82416 6.07947L1.7428 3.44226Q1.69592 3.38269 1.63849 3.33606Q1.5788 3.2876 1.50781 3.25305Q1.43811 3.21918 1.36456 3.20221Q1.29102 3.18524 1.21356 3.18512L0.394043 3.18512Q0.33197 3.18512 0.275391 3.20288Q0.224548 3.21893 0.178162 3.24933Q0.134216 3.27814 0.100403 3.31598Q0.0643311 3.35626 0.0397949 3.40686Q0.0152588 3.45746 0.00585938 3.51068Q-0.00292969 3.56055 0.00152588 3.61267Q0.00634766 3.66852 0.0255737 3.71881Q0.0465088 3.77374 0.0846558 3.82208L3.29449 7.88861Q3.34802 7.9563 3.41443 8.00708Q3.47083 8.05011 3.5365 8.08099Q3.60101 8.11133 3.66895 8.12732Q3.74451 8.14508 3.82428 8.14508Q3.90289 8.14508 3.97754 8.12781Q4.04645 8.11188 4.112 8.08118Q4.17792 8.05023 4.2345 8.00714Q4.30066 7.95673 4.35413 7.88959L10.0784 0.635803Q10.1113 0.594971 10.1314 0.548523Q10.1559 0.492004 10.1615 0.427307Q10.166 0.375488 10.1573 0.325928Q10.1479 0.272156 10.123 0.221069Q10.0986 0.170776 10.0627 0.130676Q10.0287 0.0928345 9.98474 0.0639648Q9.93835 0.0336304 9.88745 0.0177002Q9.83099 0 9.76904 0ZM4.01526 6.32159L3.82416 6.56366L3.63306 6.32153L1.50732 3.62811C1.47229 3.58362 1.42761 3.54761 1.37665 3.52289C1.32574 3.49811 1.26984 3.48523 1.2132 3.48517L0.394043 3.48517C0.315552 3.48517 0.272156 3.57538 0.320251 3.63629L0.43457 3.78119L0.437683 3.78516L3.52997 7.7027C3.67999 7.89258 3.96826 7.89258 4.11945 7.7027L9.72449 0.599976L9.72772 0.595886L9.8429 0.450012C9.89093 0.390198 9.8476 0.299988 9.76904 0.299988L8.94989 0.299988C8.83508 0.299988 8.72607 0.352722 8.65576 0.442932L4.01526 6.32159Z" fill="#6F73EE" fill-opacity="1.000000" fill-rule="evenodd"/>
</svg>
