<svg width="20.000000" height="20.000000" viewBox="0 0 20 20" fill="none" xmlns="http://www.w3.org/2000/svg" xmlns:xlink="http://www.w3.org/1999/xlink">
	<desc>
			Created with Pixso.
	</desc>
	<defs>
		<clipPath id="clip1_15998">
			<rect id="Icon / Outlined / Heart" width="20.000000" height="20.000000" fill="white" fill-opacity="0"/>
		</clipPath>
	</defs>
	<rect id="Icon / Outlined / Heart" width="20.000000" height="20.000000" fill="#FFFFFF" fill-opacity="0"/>
	<g clip-path="url(#clip1_15998)">
		<path id="Vector" d="M17.9935 5.51501C17.7329 4.9054 17.357 4.35303 16.887 3.88879C16.4166 3.4231 15.8621 3.0531 15.2535 2.79871C14.6224 2.53394 13.9455 2.39844 13.2621 2.40002C12.3034 2.40002 11.368 2.66516 10.5552 3.16602C10.3607 3.28577 10.176 3.41736 10.0009 3.56079C9.82592 3.41736 9.64117 3.28577 9.44671 3.16602C8.63384 2.66516 7.69845 2.40002 6.73973 2.40002C6.04937 2.40002 5.38041 2.53357 4.74839 2.79871C4.13777 3.05408 3.58743 3.42126 3.11487 3.88879C2.64426 4.35254 2.26831 4.90503 2.00835 5.51501C1.73805 6.14929 1.59998 6.823 1.59998 7.51624C1.59998 8.17029 1.73221 8.85181 1.99474 9.54517C2.21449 10.1245 2.52953 10.7255 2.93207 11.3324C3.56992 12.2927 4.44697 13.2944 5.53598 14.3098C7.34063 15.9929 9.12778 17.1556 9.20362 17.2028L9.66451 17.5013C9.8687 17.6329 10.1312 17.6329 10.3354 17.5013L10.7963 17.2028C10.8721 17.1537 12.6574 15.9929 14.4639 14.3098C15.553 13.2944 16.43 12.2927 17.0679 11.3324C17.4704 10.7255 17.7874 10.1245 18.0052 9.54517C18.2677 8.85181 18.4 8.17029 18.4 7.51624C18.4019 6.823 18.2638 6.14929 17.9935 5.51501ZM10.0009 15.9478C10.0009 15.9478 3.07792 11.4679 3.07792 7.51624C3.07792 5.51501 4.71728 3.8927 6.73973 3.8927C8.16128 3.8927 9.3942 4.69397 10.0009 5.8645C10.6077 4.69397 11.8406 3.8927 13.2621 3.8927C15.2846 3.8927 16.924 5.51501 16.924 7.51624C16.924 11.4679 10.0009 15.9478 10.0009 15.9478Z" fill="#282739" fill-opacity="1.000000" fill-rule="nonzero"/>
	</g>
</svg>
