<svg width="18.000000" height="18.000000" viewBox="0 0 18 18" fill="none" xmlns="http://www.w3.org/2000/svg" xmlns:xlink="http://www.w3.org/1999/xlink">
	<desc>
			Created with Pixso.
	</desc>
	<defs>
		<clipPath id="clip23_465">
			<rect id="power 1" width="18.000000" height="18.000000" fill="white" fill-opacity="0"/>
		</clipPath>
	</defs>
	<rect id="power 1" width="18.000000" height="18.000000" fill="#FFFFFF" fill-opacity="0"/>
	<g clip-path="url(#clip23_465)">
		<path id="Vector" d="M14.2233 0.260742C14.14 0.101196 13.9749 0 13.7947 0L6.72919 0C6.5155 0 6.32721 0.141418 6.26605 0.3461L3.74213 8.80411C3.69843 8.95044 3.7265 9.10791 3.81769 9.23032C3.90894 9.35275 4.05261 9.42404 4.20526 9.42404L8.16687 9.42404L6.57092 17.4212C6.52448 17.6538 6.65363 17.8862 6.87579 17.9691C6.93121 17.9898 6.98834 18 7.04474 18C7.21423 18 7.37671 17.9106 7.46478 17.756L13.6889 6.82599C13.7741 6.67633 13.7733 6.49173 13.6867 6.34286C13.6002 6.19403 13.4411 6.10147 13.2689 6.10147L10.4664 6.10147L14.1912 0.760254C14.2942 0.612549 14.3065 0.42041 14.2233 0.260742Z" fill="#5D6C7B" fill-opacity="1.000000" fill-rule="nonzero"/>
	</g>
</svg>
