<svg width="20.000000" height="20.000000" viewBox="0 0 20 20" fill="none" xmlns="http://www.w3.org/2000/svg" xmlns:xlink="http://www.w3.org/1999/xlink">
	<desc>
			Created with Pixso.
	</desc>
	<defs>
		<clipPath id="clip23_486">
			<rect id="Icon / Outlined / Heart" width="20.000000" height="20.000000" fill="white" fill-opacity="0"/>
		</clipPath>
	</defs>
	<rect id="Icon / Outlined / Heart" width="20.000000" height="20.000000" fill="#FFFFFF" fill-opacity="0"/>
	<g clip-path="url(#clip23_486)">
		<path id="Vector" d="M17.9935 5.51483C17.7328 4.90527 17.357 4.35291 16.887 3.88864C16.4166 3.42297 15.8621 3.05292 15.2535 2.79861C14.6224 2.53384 13.9455 2.39832 13.2621 2.3999C12.3034 2.3999 11.368 2.66507 10.5552 3.16589C10.3607 3.28568 10.176 3.41727 10.0009 3.56064C9.82593 3.41727 9.64117 3.28568 9.44672 3.16589C8.63385 2.66507 7.69843 2.3999 6.73975 2.3999C6.04938 2.3999 5.38043 2.53348 4.74841 2.79861C4.13776 3.05392 3.5874 3.4212 3.11487 3.88864C2.64423 4.35239 2.26831 4.90488 2.00836 5.51483C1.73804 6.14923 1.59998 6.82288 1.59998 7.51617C1.59998 8.1702 1.73224 8.85168 1.99475 9.54498C2.21448 10.1244 2.52954 10.7254 2.93207 11.3322C3.56995 12.2927 4.44696 13.2943 5.53601 14.3097C7.34064 15.9929 9.12781 17.1555 9.20361 17.2027L9.66449 17.5012C9.86871 17.6328 10.1312 17.6328 10.3354 17.5012L10.7963 17.2027C10.8721 17.1536 12.6573 15.9929 14.4639 14.3097C15.553 13.2943 16.43 12.2927 17.0679 11.3322C17.4704 10.7254 17.7874 10.1244 18.0052 9.54498C18.2677 8.85168 18.4 8.1702 18.4 7.51617C18.4019 6.82288 18.2639 6.14923 17.9935 5.51483ZM10.0009 15.9477C10.0009 15.9477 3.07794 11.4678 3.07794 7.51617C3.07794 5.51483 4.71729 3.89258 6.73975 3.89258C8.16125 3.89258 9.39423 4.69388 10.0009 5.86444C10.6077 4.69388 11.8406 3.89258 13.2621 3.89258C15.2846 3.89258 16.924 5.51483 16.924 7.51617C16.924 11.4678 10.0009 15.9477 10.0009 15.9477Z" fill="#6F73EE" fill-opacity="1.000000" fill-rule="nonzero"/>
	</g>
</svg>
