<svg width="15.000000" height="15.000000" viewBox="0 0 15 15" fill="none" xmlns="http://www.w3.org/2000/svg" xmlns:xlink="http://www.w3.org/1999/xlink">
	<desc>
			Created with Pixso.
	</desc>
	<defs>
		<clipPath id="clip1_14911">
			<rect id="pin 2" width="15.000000" height="15.000000" fill="white" fill-opacity="0"/>
		</clipPath>
	</defs>
	<rect id="pin 2" width="15.000000" height="15.000000" fill="#FFFFFF" fill-opacity="0"/>
	<g clip-path="url(#clip1_14911)">
		<path id="Vector" d="M11.9468 1.84192C10.7591 0.654175 9.17981 0 7.50006 0C5.82031 0 4.24109 0.654175 3.05328 1.84192C1.86548 3.02966 1.21136 4.60889 1.21136 6.28857C1.21136 7.96838 1.86548 9.54761 3.05328 10.7354L7.18933 14.8713C7.27515 14.9572 7.38763 15 7.50006 15C7.61255 15 7.72504 14.957 7.81079 14.8713L11.9468 10.7354C13.1345 9.54761 13.7886 7.96838 13.7887 6.28857C13.7886 4.60889 13.1346 3.02966 11.9468 1.84192ZM9.47504 8.26355C8.94751 8.79102 8.24615 9.08154 7.50012 9.08154C6.75409 9.08154 6.05267 8.79102 5.52521 8.26355C4.99762 7.73596 4.70715 7.03467 4.70715 6.28857C4.70715 5.5426 4.99762 4.84119 5.52521 4.31372C6.05267 3.78613 6.75409 3.49561 7.50012 3.49561C8.24615 3.49561 8.94751 3.78613 9.47504 4.31372C10.0026 4.84119 10.2931 5.54248 10.2931 6.28857C10.2931 7.03467 10.0026 7.73596 9.47504 8.26355Z" fill="#FFFFFF" fill-opacity="1.000000" fill-rule="nonzero"/>
	</g>
</svg>
