<svg width="20.000000" height="20.000000" viewBox="0 0 20 20" fill="none" xmlns="http://www.w3.org/2000/svg" xmlns:xlink="http://www.w3.org/1999/xlink">
	<desc>
			Created with Pixso.
	</desc>
	<defs>
		<clipPath id="clip1_15994">
			<rect id="balance 2" width="20.000000" height="20.000000" fill="white" fill-opacity="0"/>
		</clipPath>
	</defs>
	<rect id="balance 2" width="20.000000" height="20.000000" fill="#FFFFFF" fill-opacity="0"/>
	<g clip-path="url(#clip1_15994)">
		<path id="Vector" d="M19.4141 11.2639L18.7766 11.2639L16.7349 6.32556C17.0208 6.28662 17.2413 6.04211 17.2413 5.74561C17.2413 5.422 16.979 5.15967 16.6554 5.15967L11.6177 5.15967C11.3769 4.49084 10.7363 4.01135 9.98559 4.01135C9.23489 4.01135 8.59422 4.49097 8.3534 5.15967L3.34465 5.15967C3.02106 5.15967 2.75871 5.422 2.75871 5.74561C2.75871 6.04211 2.97926 6.28662 3.26511 6.32556L1.22343 11.2639L0.585938 11.2639C0.262344 11.2639 0 11.5262 0 11.8499C0 14.132 1.85668 15.9886 4.13882 15.9886C6.42097 15.9886 8.27766 14.132 8.27766 11.8499C8.27766 11.5262 8.01531 11.2639 7.69172 11.2639L7.05418 11.2639L5.01504 6.33154L8.3534 6.33154C8.59422 7.00037 9.23485 7.47986 9.98559 7.47986C10.7363 7.47986 11.3769 7.00037 11.6177 6.33154L14.985 6.33154L12.9459 11.2639L12.3083 11.2639C11.9847 11.2639 11.7224 11.5262 11.7224 11.8499C11.7224 14.132 13.5791 15.9886 15.8612 15.9886C18.1434 15.9886 20 14.132 20 11.8499C20 11.5262 19.7377 11.2639 19.4141 11.2639ZM4.13882 14.8168C2.70332 14.8168 1.50269 13.7921 1.22996 12.4358L7.0477 12.4358C6.77496 13.7921 5.57433 14.8168 4.13882 14.8168ZM5.78613 11.2639L2.49152 11.2639L4.13882 7.27942L5.78613 11.2639ZM9.98555 6.30798C9.67543 6.30798 9.42316 6.05579 9.42316 5.74561C9.42316 5.43555 9.67543 5.18323 9.98555 5.18323C10.2956 5.18323 10.5479 5.43555 10.5479 5.74561C10.5479 6.05579 10.2957 6.30798 9.98555 6.30798ZM15.8612 7.27942L17.5085 11.2639L14.2139 11.2639L15.8612 7.27942ZM15.8612 14.8168C14.4257 14.8168 13.225 13.7921 12.9523 12.4358L18.77 12.4358C18.4973 13.7921 17.2966 14.8168 15.8612 14.8168Z" fill="#282739" fill-opacity="1.000000" fill-rule="nonzero"/>
		<path id="Vector" d="M18.1985 15.2639C17.533 15.7209 16.7278 15.9886 15.8612 15.9886C14.9946 15.9886 14.1894 15.7209 13.5239 15.2639C13.4532 15.2153 13.384 15.1647 13.3166 15.1119C13.1889 15.0122 13.0673 14.905 12.9523 14.7913C12.5979 14.4408 12.3063 14.027 12.0962 13.5682C11.8562 13.0446 11.7224 12.4625 11.7224 11.8499C11.7224 11.549 11.9493 11.301 12.2413 11.2677C12.2633 11.2653 12.2857 11.2639 12.3083 11.2639L12.9459 11.2639L13.063 10.9806L13.2902 10.431L13.3313 10.3315L13.697 9.4469L13.8158 9.15967L14.1151 8.43579L14.2139 8.19678L14.2327 8.15112L14.3317 7.91174L14.5487 7.38696L14.5995 7.26392L14.985 6.33154L11.6177 6.33154C11.3987 6.9397 10.8491 7.39148 10.1867 7.46826C10.1207 7.47595 10.0536 7.47986 9.98559 7.47986C9.92793 7.47986 9.87091 7.47705 9.81467 7.47156C9.13879 7.40503 8.57572 6.94897 8.3534 6.33154L5.01504 6.33154L5.40051 7.26392L5.44761 7.37793L5.66831 7.91174L5.7673 8.15112L5.78613 8.19666L5.88498 8.43579L6.18424 9.15967L6.303 9.4469L6.66872 10.3315L6.72163 10.4596L6.93703 10.9806L7.05418 11.2639L7.69172 11.2639C7.71438 11.2639 7.73674 11.2653 7.75874 11.2677C8.05077 11.301 8.27766 11.549 8.27766 11.8499C8.27766 12.4625 8.14383 13.0446 7.90388 13.5682C7.6937 14.027 7.4021 14.4408 7.0477 14.7914C6.93269 14.9052 6.81107 15.0122 6.68348 15.1119C6.61601 15.1647 6.54687 15.2153 6.47615 15.2639C5.81063 15.7209 5.0054 15.9886 4.13882 15.9886C3.27225 15.9886 2.46703 15.7209 1.8015 15.2639C1.73079 15.2153 1.66164 15.1647 1.59418 15.1119C1.46658 15.0122 1.34496 14.9052 1.22996 14.7914C0.470924 14.0406 0 12.9993 0 11.8499C0 11.5262 0.262344 11.2639 0.585938 11.2639L1.22343 11.2639L1.34061 10.9805L1.73025 10.0381L1.97464 9.4469L2.39267 8.43579L2.49152 8.19666L2.60934 7.91174L2.87716 7.26392L3.26511 6.32556C3.163 6.31165 3.06921 6.27148 2.99084 6.21216C2.84983 6.10535 2.75871 5.93628 2.75871 5.74561C2.75871 5.422 3.02106 5.15967 3.34465 5.15967L8.3534 5.15967C8.38549 5.07056 8.42468 4.98474 8.47029 4.90308C8.76692 4.37158 9.33492 4.01135 9.98559 4.01135C10.6299 4.01135 11.1931 4.36462 11.492 4.88745C11.5414 4.97388 11.5836 5.06482 11.6177 5.15967L16.6554 5.15967C16.979 5.15967 17.2413 5.422 17.2413 5.74561C17.2413 5.93628 17.1502 6.10535 17.0092 6.21216C16.9308 6.27148 16.8371 6.31165 16.7349 6.32556L17.1229 7.26392L17.3907 7.91174L17.5085 8.19666L17.6074 8.43579L18.0254 9.4469L18.2698 10.0381L18.6594 10.9805L18.7766 11.2639L19.4141 11.2639C19.7377 11.2639 20 11.5262 20 11.8499C20 12.9993 19.5291 14.0406 18.77 14.7914C18.655 14.9052 18.5334 15.0122 18.4058 15.1119C18.3384 15.1647 18.2692 15.2153 18.1985 15.2639ZM17.2355 14.4789C16.8398 14.6865 16.3918 14.8075 15.9168 14.8163C15.8983 14.8167 15.8798 14.8168 15.8612 14.8168C15.8426 14.8168 15.8241 14.8167 15.8056 14.8163C15.3306 14.8075 14.8825 14.6866 14.4868 14.4789C13.7072 14.0697 13.1309 13.3239 12.9523 12.4358L18.77 12.4358C18.5915 13.3239 18.0151 14.0697 17.2355 14.4789ZM16.715 11.2639L17.5085 11.2639L17.3913 10.9806L16.6385 9.15967L16.6385 9.15967L16.3393 8.43579L15.8612 7.27942L15.3831 8.43579L15.2155 8.84106L15.0838 9.15967L14.985 9.39868L14.5993 10.3315L14.331 10.9805L14.2139 11.2639L16.715 11.2639ZM3.66074 8.43579L3.3615 9.15967L3.36147 9.15967L2.60867 10.9806L2.49152 11.2639L5.78613 11.2639L5.66897 10.9806L5.40067 10.3315L5.01504 9.3988L4.91618 9.15967L4.78448 8.84106L4.61691 8.43579L4.13882 7.27942L3.66074 8.43579ZM2.95158 12.4358L1.22996 12.4358C1.40853 13.3239 1.98487 14.0697 2.76447 14.4789C3.16016 14.6865 3.60818 14.8075 4.08315 14.8163C4.10167 14.8167 4.12023 14.8168 4.13882 14.8168C4.15741 14.8168 4.17595 14.8167 4.19445 14.8163C4.66943 14.8075 5.11749 14.6866 5.51318 14.4789C6.29279 14.0697 6.86913 13.3239 7.0477 12.4358L2.95158 12.4358ZM9.98555 6.30798C9.67543 6.30798 9.42316 6.05579 9.42316 5.74561C9.42316 5.43555 9.67543 5.18323 9.98555 5.18323C10.2956 5.18323 10.5479 5.43555 10.5479 5.74561C10.5479 6.05579 10.2957 6.30798 9.98555 6.30798Z" fill="#282739" fill-opacity="1.000000" fill-rule="evenodd"/>
	</g>
</svg>
