<svg width="14.646851" height="15.317139" viewBox="0 0 14.6469 15.3171" fill="none" xmlns="http://www.w3.org/2000/svg" xmlns:xlink="http://www.w3.org/1999/xlink">
	<desc>
			Created with Pixso.
	</desc>
	<defs/>
	<path id="Vector" d="M12.2656 10.5046L9.64062 1.52026L11.4062 1.32971C11.7719 1.28906 12.0375 0.960938 11.9969 0.595337C11.9562 0.229614 11.6312 -0.0390625 11.2625 0.00463867L6.16565 0.554688C5.79999 0.595337 5.53436 0.923462 5.57501 1.28906C5.61249 1.62964 5.90002 1.88281 6.23749 1.88281C6.26251 1.88281 6.28436 1.88281 6.30939 1.87964L8.29688 1.66711L10.9719 10.8422C10.4437 11.1515 10.0469 11.6515 9.87189 12.2452L4.77814 12.2452C4.48438 11.2422 3.54999 10.5046 2.4375 10.5046C1.09064 10.5046 0 11.5828 0 12.9109C0 14.239 1.09064 15.3171 2.4375 15.3171C3.54999 15.3171 4.48438 14.5828 4.77814 13.5765L9.86877 13.5765C10.1625 14.5797 11.0969 15.3171 12.2094 15.3171C13.5563 15.3171 14.6469 14.239 14.6469 12.9109C14.6469 11.5984 13.5875 10.5328 12.2656 10.5046Z" fill="#FFFFFF" fill-opacity="1.000000" fill-rule="nonzero"/>
</svg>
