<svg width="16.000000" height="16.000000" viewBox="0 0 16 16" fill="none" xmlns="http://www.w3.org/2000/svg" xmlns:xlink="http://www.w3.org/1999/xlink">
	<desc>
			Created with Pixso.
	</desc>
	<defs/>
	<path id="Vector" d="M15.9519 14.85L10.7579 9.65601C11.5639 8.61401 12 7.33997 12 6C12 4.396 11.3739 2.89197 10.242 1.75793C9.10995 0.624023 7.60196 0 5.99997 0C4.39798 0 2.88998 0.625977 1.758 1.75793C0.623993 2.89001 0 4.396 0 6C0 7.60193 0.625992 9.10999 1.758 10.2419C2.88998 11.376 4.39598 12 5.99997 12C7.33997 12 8.61197 11.564 9.65396 10.76L14.8479 15.9519C14.8632 15.9672 14.8813 15.9792 14.9012 15.9875C14.9211 15.9957 14.9424 16 14.9639 16C14.9855 16 15.0068 15.9957 15.0267 15.9875C15.0466 15.9792 15.0647 15.9672 15.0799 15.9519L15.9519 15.0819C15.9672 15.0667 15.9793 15.0486 15.9875 15.0287C15.9958 15.0088 16 14.9874 16 14.9659C16 14.9443 15.9958 14.9231 15.9875 14.9032C15.9793 14.8833 15.9672 14.8651 15.9519 14.85ZM9.16795 9.16797C8.31996 10.0139 7.19597 10.48 5.99997 10.48C4.80399 10.48 3.67998 10.0139 2.83199 9.16797C1.98599 8.31995 1.51999 7.19592 1.51999 6C1.51999 4.80396 1.98599 3.67798 2.83199 2.83203C3.67998 1.98596 4.80399 1.52002 5.99997 1.52002C7.19597 1.52002 8.32196 1.98401 9.16795 2.83203C10.014 3.67993 10.4799 4.80396 10.4799 6C10.4799 7.19592 10.014 8.32202 9.16795 9.16797Z" fill="#FFFFFF" fill-opacity="1.000000" fill-rule="nonzero"/>
</svg>
