<svg width="20.000000" height="20.000000" viewBox="0 0 20 20" fill="none" xmlns="http://www.w3.org/2000/svg" xmlns:xlink="http://www.w3.org/1999/xlink">
	<desc>
			Created with Pixso.
	</desc>
	<defs>
		<clipPath id="clip23_478">
			<rect id="shopping-cart-2 1" width="20.000000" height="20.000000" fill="white" fill-opacity="0"/>
		</clipPath>
	</defs>
	<rect id="shopping-cart-2 1" width="20.000000" height="20.000000" fill="#FFFFFF" fill-opacity="0"/>
	<g clip-path="url(#clip23_478)">
		<path id="Vector" d="M19.703 7.22903C19.4389 6.89771 19.0427 6.70764 18.6159 6.70764L14.7642 6.70764L12.6755 1.92511C12.5461 1.62857 12.2007 1.49307 11.9041 1.62265C11.6075 1.75214 11.4721 2.09756 11.6017 2.39413L13.4855 6.70767L6.5144 6.70767L8.39819 2.39413C8.52771 2.09756 8.39233 1.75217 8.09576 1.62265C7.79926 1.49307 7.4538 1.62851 7.32434 1.92511L5.23566 6.70767L1.38397 6.70767C0.957153 6.70767 0.560974 6.89771 0.296875 7.2291C0.0375977 7.55438 -0.0580444 7.9726 0.0344238 8.37659L2.09131 17.361C2.23492 17.9883 2.78992 18.4264 3.44086 18.4264L16.559 18.4264C17.21 18.4264 17.765 17.9883 17.9086 17.361L19.9655 8.37656C20.0579 7.97256 19.9623 7.55435 19.703 7.22903ZM16.559 17.2545L3.44086 17.2545C3.34137 17.2545 3.25421 17.1893 3.23364 17.0994L1.17676 8.11505C1.16058 8.04456 1.18768 7.99152 1.21332 7.95944C1.23706 7.9296 1.29083 7.87955 1.38397 7.87955L4.72394 7.87955L4.57043 8.23099C4.44098 8.52756 4.57635 8.87296 4.87292 9.00247C4.94922 9.03583 5.02875 9.05164 5.10712 9.05164C5.33295 9.05164 5.54816 8.92026 5.64435 8.70007L6.00269 7.87964L13.9973 7.87964L14.3556 8.70007C14.4518 8.92029 14.667 9.05164 14.8929 9.05164C14.9711 9.05164 15.0507 9.03583 15.1271 9.00247C15.4236 8.87299 15.559 8.52756 15.4295 8.23099L15.2761 7.87955L18.616 7.87955C18.7091 7.87955 18.7629 7.9296 18.7867 7.95944C18.8123 7.99155 18.8394 8.04459 18.8232 8.11502L16.7663 17.0994C16.7457 17.1893 16.6585 17.2545 16.559 17.2545Z" fill="#6F73EE" fill-opacity="1.000000" fill-rule="nonzero"/>
		<path id="Vector" d="" fill="#6F73EE" fill-opacity="1.000000" fill-rule="evenodd"/>
		<path id="Vector" d="M6.48438 10.4189C6.16077 10.4189 5.89844 10.6813 5.89844 11.0049L5.89844 15.3018C5.89844 15.6254 6.16077 15.8877 6.48438 15.8877C6.80798 15.8877 7.07031 15.6254 7.07031 15.3018L7.07031 11.0049C7.07031 10.6813 6.80798 10.4189 6.48438 10.4189Z" fill="#6F73EE" fill-opacity="1.000000" fill-rule="nonzero"/>
		<path id="Vector" d="" fill="#6F73EE" fill-opacity="1.000000" fill-rule="evenodd"/>
		<path id="Vector" d="M10 10.4189C9.67639 10.4189 9.41406 10.6813 9.41406 11.0049L9.41406 15.3018C9.41406 15.6254 9.67639 15.8877 10 15.8877C10.3236 15.8877 10.5859 15.6254 10.5859 15.3018L10.5859 11.0049C10.5859 10.6813 10.3236 10.4189 10 10.4189Z" fill="#6F73EE" fill-opacity="1.000000" fill-rule="nonzero"/>
		<path id="Vector" d="" fill="#6F73EE" fill-opacity="1.000000" fill-rule="evenodd"/>
		<path id="Vector" d="M13.5156 10.4189C13.192 10.4189 12.9297 10.6813 12.9297 11.0049L12.9297 15.3018C12.9297 15.6254 13.192 15.8877 13.5156 15.8877C13.8392 15.8877 14.1016 15.6254 14.1016 15.3018L14.1016 11.0049C14.1015 10.6813 13.8392 10.4189 13.5156 10.4189Z" fill="#6F73EE" fill-opacity="1.000000" fill-rule="nonzero"/>
		<path id="Vector" d="" fill="#6F73EE" fill-opacity="1.000000" fill-rule="evenodd"/>
	</g>
</svg>
