<svg width="18.000000" height="18.000000" viewBox="0 0 18 18" fill="none" xmlns="http://www.w3.org/2000/svg" xmlns:xlink="http://www.w3.org/1999/xlink">
	<desc>
			Created with Pixso.
	</desc>
	<defs>
		<clipPath id="clip23_455">
			<rect id="speedometer 1" width="18.000000" height="18.000000" fill="white" fill-opacity="0"/>
		</clipPath>
	</defs>
	<rect id="speedometer 1" width="18.000000" height="18.000000" fill="#FFFFFF" fill-opacity="0"/>
	<g clip-path="url(#clip23_455)">
		<path id="Vector" d="M8.47253 4.56442L8.47253 1.23608C6.43976 1.35275 4.53345 2.1427 3.01184 3.49878L5.36505 5.85199C6.25067 5.11478 7.32599 4.66919 8.47253 4.56442Z" fill="#5D6C7B" fill-opacity="1.000000" fill-rule="nonzero"/>
		<path id="Vector" d="M4.61914 6.59756L2.26593 4.24438C0.908691 5.76556 0.117798 7.672 0.000366211 9.70529L3.32886 9.70529C3.43433 8.55847 3.8808 7.48306 4.61914 6.59756Z" fill="#5D6C7B" fill-opacity="1.000000" fill-rule="nonzero"/>
		<path id="Vector" d="M14.671 9.70529L17.9995 9.70529C17.8821 7.672 17.0912 5.76556 15.7339 4.24438L13.3807 6.59756C14.1191 7.48303 14.5656 8.55847 14.671 9.70529Z" fill="#5D6C7B" fill-opacity="1.000000" fill-rule="nonzero"/>
		<path id="Vector" d="M14.6703 10.76C14.4959 12.6759 13.4442 13.8449 13.0266 14.2625C12.8203 14.4688 12.8203 14.8032 13.0266 15.0095L14.6266 16.6096C14.7298 16.7128 14.865 16.7644 15.0002 16.7644C15.1354 16.7644 15.2706 16.7128 15.3737 16.6096C16.9531 15.0305 17.874 12.9698 18 10.76L14.6703 10.76Z" fill="#5D6C7B" fill-opacity="1.000000" fill-rule="nonzero"/>
		<path id="Vector" d="M3.27191 13.7858C3.41919 13.5543 3.64215 13.2057 3.90961 12.7933C3.63544 12.2498 3.40356 11.5723 3.32965 10.76L0 10.76C0.126038 12.9698 1.04694 15.0305 2.62628 16.6097C2.72943 16.7128 2.86462 16.7644 2.99976 16.7644C3.13495 16.7644 3.27014 16.7128 3.37329 16.6097L3.9212 16.0618C3.76251 15.9854 3.61609 15.8821 3.48785 15.7539C2.95953 15.2255 2.87067 14.4162 3.27191 13.7858Z" fill="#5D6C7B" fill-opacity="1.000000" fill-rule="nonzero"/>
		<path id="Vector" d="M9.52734 1.23608L9.52734 4.56442C10.674 4.66919 11.7493 5.11475 12.6348 5.85199L14.988 3.49878C13.4664 2.14267 11.5601 1.35275 9.52734 1.23608Z" fill="#5D6C7B" fill-opacity="1.000000" fill-rule="nonzero"/>
		<path id="Vector" d="M7.82843 9.06998C7.01221 9.88617 4.45111 13.8973 4.16174 14.352C4.02905 14.5605 4.05896 14.8332 4.23376 15.008C4.40851 15.1828 4.68121 15.2127 4.88977 15.08C5.34442 14.7907 9.35565 12.2296 10.1718 11.4134C10.8179 10.7673 10.8179 9.71609 10.1718 9.07001C9.52576 8.42395 8.47449 8.42392 7.82843 9.06998Z" fill="#5D6C7B" fill-opacity="1.000000" fill-rule="nonzero"/>
	</g>
</svg>
