<svg width="16.000000" height="16.000000" viewBox="0 0 16 16" fill="none" xmlns="http://www.w3.org/2000/svg" xmlns:xlink="http://www.w3.org/1999/xlink">
	<desc>
			Created with Pixso.
	</desc>
	<defs>
		<clipPath id="clip1_16068">
			<rect id="003-telegram 1" width="16.000000" height="16.000000" transform="translate(0.000000 -0.500000)" fill="white" fill-opacity="0"/>
		</clipPath>
	</defs>
	<rect id="003-telegram 1" width="16.000000" height="16.000000" transform="translate(0.000000 -0.500000)" fill="#FFFFFF" fill-opacity="0"/>
	<g clip-path="url(#clip1_16068)">
		<path id="Vector" d="M6.27 9.62L6.01 13.34C6.39 13.34 6.55 13.18 6.75 12.98L8.52 11.28L12.2 13.98C12.88 14.35 13.35 14.16 13.53 13.36L15.95 2.04L15.95 2.04C16.16 1.04 15.59 0.65 14.93 0.9L0.74 6.33C-0.23 6.71 -0.22 7.25 0.57 7.49L4.2 8.62L12.63 3.35C13.03 3.09 13.39 3.23 13.09 3.49L6.27 9.62Z" fill="#5D6C7B" fill-opacity="1.000000" fill-rule="nonzero"/>
	</g>
</svg>
