<svg width="18.000000" height="18.000000" viewBox="0 0 18 18" fill="none" xmlns="http://www.w3.org/2000/svg" xmlns:xlink="http://www.w3.org/1999/xlink">
	<desc>
			Created with Pixso.
	</desc>
	<defs>
		<clipPath id="clip23_461">
			<rect id="timer 1" width="18.000000" height="18.000000" fill="white" fill-opacity="0"/>
		</clipPath>
	</defs>
	<rect id="timer 1" width="18.000000" height="18.000000" fill="#FFFFFF" fill-opacity="0"/>
	<g clip-path="url(#clip23_461)">
		<path id="Vector" d="M14.4525 5.35818L15.5303 4.28043L14.4697 3.21957L13.3168 4.3725C12.2635 3.6261 11.0345 3.16608 9.75 3.03751L9.75 1.5L11.25 1.5L11.25 0L6.75 0L6.75 1.5L8.25 1.5L8.25 3.03751C6.96552 3.16608 5.73645 3.6261 4.68317 4.3725L3.53027 3.21957L2.46973 4.28043L3.54749 5.35818C2.5415 6.42334 1.86951 7.75983 1.6145 9.20261C1.3595 10.6454 1.53265 12.1312 2.11255 13.4767C2.6925 14.8222 3.65387 15.9683 4.87781 16.7736C6.10181 17.5788 7.53485 18.008 9 18.008C10.4651 18.008 11.8982 17.5788 13.1222 16.7736C14.3462 15.9683 15.3075 14.8222 15.8875 13.4767C16.4674 12.1312 16.6406 10.6454 16.3856 9.20261C16.1306 7.75983 15.4585 6.42334 14.4525 5.35818ZM9 16.5C7.81329 16.5 6.65326 16.1481 5.66656 15.4888C4.67987 14.8295 3.91083 13.8925 3.45673 12.7961C3.00262 11.6997 2.88379 10.4933 3.1153 9.32947C3.3468 8.16556 3.91827 7.09647 4.75739 6.25735C5.5965 5.41824 6.66559 4.8468 7.82947 4.6153C8.99335 4.38379 10.1998 4.50259 11.2961 4.95673C12.3925 5.41086 13.3295 6.17987 13.9888 7.16656C14.6481 8.15326 15 9.31332 15 10.5C14.9982 12.0908 14.3655 13.6158 13.2407 14.7407C12.1158 15.8655 10.5908 16.4982 9 16.5Z" fill="#5D6C7B" fill-opacity="1.000000" fill-rule="nonzero"/>
		<path id="Vector" d="M9 6L9 10.5L4.5 10.5C4.5 11.39 4.76392 12.26 5.25836 13.0001C5.75287 13.7401 6.45563 14.3169 7.27795 14.6575C8.10022 14.998 9.005 15.0872 9.87793 14.9135C10.7508 14.7399 11.5527 14.3113 12.182 13.682C12.8113 13.0526 13.2399 12.2508 13.4135 11.3779C13.5872 10.505 13.498 9.60019 13.1575 8.77792C12.8169 7.95566 12.2401 7.25287 11.5001 6.75839C10.7601 6.26392 9.89001 6 9 6Z" fill="#5D6C7B" fill-opacity="1.000000" fill-rule="nonzero"/>
	</g>
</svg>
