<svg width="12.000000" height="12.000000" viewBox="0 0 12 12" fill="none" xmlns="http://www.w3.org/2000/svg" xmlns:xlink="http://www.w3.org/1999/xlink">
	<desc>
			Created with Pixso.
	</desc>
	<defs>
		<clipPath id="clip1_15970">
			<rect id="viber 1" width="12.000000" height="12.000000" fill="white" fill-opacity="0"/>
		</clipPath>
	</defs>
	<rect id="viber 1" width="12.000000" height="12.000000" fill="#FFFFFF" fill-opacity="0"/>
	<g clip-path="url(#clip1_15970)">
		<path id="Vector" d="M6.40802 6.77979C6.27075 6.91711 6.04822 6.91711 5.91089 6.77979L4.31329 5.18213C4.24738 5.11621 4.21027 5.02673 4.21027 4.93359C4.21027 4.84033 4.24738 4.75098 4.31329 4.68494L4.59729 4.401L3.76312 3.56689L3.07977 4.25024C2.84979 4.48022 2.84991 4.85437 3.07977 5.08435L6.00867 8.01343C6.11932 8.12415 6.26746 8.18494 6.42578 8.18494C6.58405 8.18494 6.73218 8.12402 6.8429 8.01331L7.52625 7.33008L6.69208 6.49585L6.40802 6.77979Z" fill="#5D6C7B" fill-opacity="1.000000" fill-rule="nonzero"/>
		<path id="Vector" d="M11.4957 4.23535C11.4957 3.10828 11.0541 2.0459 10.2519 1.2439C9.44983 0.441772 8.38745 0 7.26038 0L4.75085 0C4.75085 0 4.75085 0 4.75073 0C3.62384 0 2.56146 0.441772 1.75946 1.24377C0.957397 2.0459 0.515625 3.10828 0.515625 4.23535L0.515625 6.20789C0.515625 7.08069 0.78186 7.92029 1.28558 8.63599C1.72998 9.26733 2.32764 9.7605 3.02441 10.0732L3.02441 11.2063C3.02441 11.7921 3.35248 11.9999 3.63336 12C3.83405 12 4.03479 11.9009 4.23022 11.7057L5.49243 10.4432L7.2605 10.4432C8.38751 10.4432 9.44989 10.0015 10.252 9.19946C11.0541 8.39734 11.4958 7.33496 11.4958 6.20789L11.4957 4.23535ZM8.27197 7.57861L7.33997 8.5105C7.09644 8.75415 6.77179 8.88806 6.42572 8.88806C6.07965 8.88806 5.755 8.75403 5.51147 8.5105L2.58252 5.58154C2.07849 5.07739 2.07849 4.25708 2.58252 3.75305L3.51453 2.82104C3.58044 2.75513 3.6698 2.71814 3.76306 2.71814C3.85632 2.71814 3.94574 2.75513 4.01166 2.82104L5.34302 4.15247C5.40894 4.21838 5.44592 4.30786 5.44592 4.401C5.44592 4.49426 5.40894 4.58374 5.3429 4.64966L5.05902 4.93347L6.15948 6.03394L6.44348 5.75C6.58081 5.61279 6.80334 5.61279 6.94061 5.75L8.27197 7.08142C8.33801 7.14734 8.375 7.23682 8.375 7.32996C8.375 7.42334 8.33801 7.5127 8.27197 7.57861ZM5.73944 3.41296C5.73944 3.21887 5.89685 3.0614 6.091 3.0614C7.30908 3.0614 8.30017 4.05237 8.30017 5.27039C8.30017 5.4646 8.14282 5.62195 7.94861 5.62195C7.75452 5.62195 7.59705 5.4646 7.59705 5.27039C7.59705 4.44019 6.92151 3.76453 6.091 3.76453C5.89685 3.76453 5.73944 3.60718 5.73944 3.41296ZM9.45471 5.62219C9.26056 5.62219 9.10315 5.46472 9.10315 5.27063C9.10327 4.46594 8.78992 3.70947 8.22095 3.1405C7.65198 2.57166 6.89557 2.2583 6.09094 2.2583C5.89685 2.2583 5.73938 2.10083 5.73938 1.90674C5.73938 1.71265 5.89685 1.55518 6.09094 1.55518C7.08337 1.55518 8.01636 1.94165 8.71814 2.64343C9.41992 3.34521 9.8064 4.2782 9.80627 5.27063C9.80627 5.46472 9.64893 5.62219 9.45471 5.62219Z" fill="#5D6C7B" fill-opacity="1.000000" fill-rule="nonzero"/>
	</g>
</svg>
