<svg width="16.000000" height="16.000000" viewBox="0 0 16 16" fill="none" xmlns="http://www.w3.org/2000/svg" xmlns:xlink="http://www.w3.org/1999/xlink">
	<desc>
			Created with Pixso.
	</desc>
	<defs>
		<clipPath id="clip1_16062">
			<rect id="viber 1" width="16.000000" height="16.000000" transform="translate(0.000000 -0.500000)" fill="white" fill-opacity="0"/>
		</clipPath>
	</defs>
	<rect id="viber 1" width="16.000000" height="16.000000" transform="translate(0.000000 -0.500000)" fill="#FFFFFF" fill-opacity="0"/>
	<g clip-path="url(#clip1_16062)">
		<path id="Vector" d="M8.54 8.53C8.36 8.72 8.06 8.72 7.88 8.53L5.75 6.4C5.66 6.32 5.61 6.2 5.61 6.07C5.61 5.95 5.66 5.83 5.75 5.74L6.12 5.36L5.01 4.25L4.1 5.16C3.79 5.47 3.79 5.97 4.1 6.27L8.01 10.18C8.15 10.33 8.35 10.41 8.56 10.41C8.77 10.41 8.97 10.33 9.12 10.18L10.03 9.27L8.92 8.16L8.54 8.53Z" fill="#5D6C7B" fill-opacity="1.000000" fill-rule="nonzero"/>
		<path id="Vector" d="M15.32 5.14C15.32 3.64 14.73 2.22 13.66 1.15C12.59 0.08 11.18 -0.5 9.68 -0.5L6.33 -0.5C6.33 -0.5 6.33 -0.5 6.33 -0.5C4.83 -0.5 3.41 0.08 2.34 1.15C1.27 2.22 0.68 3.64 0.68 5.14L0.68 7.77C0.68 8.94 1.04 10.06 1.71 11.01C2.3 11.85 3.1 12.51 4.03 12.93L4.03 14.44C4.03 15.22 4.46 15.49 4.84 15.5C5.11 15.5 5.37 15.36 5.64 15.1L7.32 13.42L9.68 13.42C11.18 13.42 12.59 12.83 13.66 11.76C14.73 10.69 15.32 9.27 15.32 7.77L15.32 5.14ZM11.02 9.6L9.78 10.84C9.46 11.17 9.02 11.35 8.56 11.35C8.1 11.35 7.67 11.17 7.34 10.84L3.44 6.94C2.77 6.26 2.77 5.17 3.44 4.5L4.68 3.26C4.77 3.17 4.89 3.12 5.01 3.12C5.14 3.12 5.26 3.17 5.34 3.26L7.12 5.03C7.21 5.12 7.26 5.24 7.26 5.36C7.26 5.49 7.21 5.61 7.12 5.69L6.74 6.07L8.21 7.54L8.59 7.16C8.77 6.98 9.07 6.98 9.25 7.16L11.02 8.94C11.11 9.02 11.16 9.14 11.16 9.27C11.16 9.39 11.11 9.51 11.02 9.6ZM7.65 4.05C7.65 3.79 7.86 3.58 8.12 3.58C9.74 3.58 11.06 4.9 11.06 6.52C11.06 6.78 10.85 6.99 10.59 6.99C10.33 6.99 10.12 6.78 10.12 6.52C10.12 5.42 9.22 4.51 8.12 4.51C7.86 4.51 7.65 4.3 7.65 4.05ZM12.6 6.99C12.34 6.99 12.13 6.78 12.13 6.52C12.13 5.45 11.71 4.44 10.96 3.68C10.2 2.92 9.19 2.51 8.12 2.51C7.86 2.51 7.65 2.3 7.65 2.04C7.65 1.78 7.86 1.57 8.12 1.57C9.44 1.57 10.68 2.08 11.62 3.02C12.55 3.96 13.07 5.2 13.07 6.52C13.07 6.78 12.86 6.99 12.6 6.99Z" fill="#5D6C7B" fill-opacity="1.000000" fill-rule="nonzero"/>
	</g>
</svg>
