<svg width="16.000000" height="16.000000" viewBox="0 0 16 16" fill="none" xmlns="http://www.w3.org/2000/svg" xmlns:xlink="http://www.w3.org/1999/xlink">
	<desc>
			Created with Pixso.
	</desc>
	<defs>
		<clipPath id="clip1_16065">
			<rect id="003-whatsapp 1" width="16.000000" height="16.000000" transform="translate(0.000000 -0.500000)" fill="white" fill-opacity="0"/>
		</clipPath>
	</defs>
	<rect id="003-whatsapp 1" width="16.000000" height="16.000000" transform="translate(0.000000 -0.500000)" fill="#FFFFFF" fill-opacity="0"/>
	<g clip-path="url(#clip1_16065)">
		<path id="Vector" d="M7.99 -0.5C3.58 -0.5 0 3.08 0 7.5C0 9.03 0.44 10.52 1.26 11.81L0.02 15.04C-0.05 15.21 0.04 15.4 0.21 15.47C0.25 15.48 0.29 15.49 0.33 15.49C0.37 15.49 0.4 15.48 0.44 15.47L3.77 14.28C7.52 16.62 12.45 15.47 14.79 11.72C17.12 7.97 15.97 3.04 12.23 0.71C10.95 -0.08 9.49 -0.5 7.99 -0.5Z" fill="#5D6C7B" fill-opacity="1.000000" fill-rule="nonzero"/>
		<path id="Vector" d="M11.8 8.86C11.8 8.86 10.99 8.46 10.48 8.19C9.9 7.9 9.22 8.45 8.9 8.77C8.4 8.58 7.95 8.29 7.56 7.92C7.19 7.54 6.9 7.08 6.71 6.59C7.03 6.27 7.59 5.59 7.29 5.01C7.03 4.5 6.62 3.68 6.62 3.68C6.57 3.57 6.45 3.5 6.33 3.5L5.66 3.5C4.69 3.66 3.98 4.51 3.99 5.5C3.99 6.54 5.25 8.55 6.09 9.4C6.93 10.24 8.94 11.49 9.99 11.49C10.97 11.5 11.82 10.8 11.99 9.83L11.99 9.16C11.99 9.03 11.92 8.92 11.8 8.86Z" fill="#F7F7F7" fill-opacity="1.000000" fill-rule="nonzero"/>
	</g>
</svg>
