<svg width="12.000000" height="12.000000" viewBox="0 0 12 12" fill="none" xmlns="http://www.w3.org/2000/svg" xmlns:xlink="http://www.w3.org/1999/xlink">
	<desc>
			Created with Pixso.
	</desc>
	<defs>
		<clipPath id="clip1_15973">
			<rect id="003-whatsapp 1" width="12.000000" height="12.000000" fill="white" fill-opacity="0"/>
		</clipPath>
	</defs>
	<rect id="003-whatsapp 1" width="12.000000" height="12.000000" fill="#FFFFFF" fill-opacity="0"/>
	<g clip-path="url(#clip1_15973)">
		<path id="Vector" d="M5.99677 0.00378418C2.68506 0.0045166 0.000915527 2.68982 0.00158691 6.00159C0.00183105 7.14832 0.330933 8.27087 0.949768 9.23633L0.0168457 11.6569C-0.0328369 11.7856 0.03125 11.9303 0.159973 11.98C0.188782 11.9911 0.219299 11.9967 0.250183 11.9967C0.278809 11.9968 0.30719 11.9919 0.334106 11.9822L2.83264 11.0902C5.64374 12.8411 9.34192 11.9814 11.0927 9.17029C12.8435 6.35913 11.9839 2.66101 9.17279 0.910278C8.21985 0.316772 7.11945 0.00268555 5.99677 0.00378418Z" fill="#5D6C7B" fill-opacity="1.000000" fill-rule="nonzero"/>
		<path id="Vector" d="M8.85553 7.02441C8.85553 7.02441 8.24335 6.72461 7.86011 6.52478C7.42633 6.30139 6.91669 6.7196 6.67682 6.95752C6.30353 6.81409 5.96252 6.59766 5.67389 6.32092C5.39703 6.03223 5.1806 5.69128 5.03729 5.31799C5.27515 5.07764 5.69238 4.56836 5.47003 4.13464C5.27264 3.75085 4.97034 3.13879 4.97034 3.13879C4.92792 3.05457 4.84174 3.00146 4.74744 3.00134L4.24774 3.00134C3.52002 3.12708 2.99091 3.76196 2.99847 4.50049C2.99847 5.28503 3.93744 6.79211 4.57056 7.42566C5.20374 8.05933 6.71082 8.9978 7.49585 8.9978C8.23431 9.00537 8.86926 8.4762 8.99493 7.74854L8.99493 7.2489C8.995 7.15356 8.94098 7.06653 8.85553 7.02441Z" fill="#F7F7F7" fill-opacity="1.000000" fill-rule="nonzero"/>
	</g>
</svg>
